<?xml version="1.0" standalone="no"?>
<!DOCTYPE svg PUBLIC "-//W3C//DTD SVG 20010904//EN"
"http://www.w3.org/TR/2001/REC-SVG-20010904/DTD/svg10.dtd">
<svg version="1.0" xmlns="http://www.w3.org/2000/svg"
width="34.000000pt" height="31.000000pt" viewBox="0 0 34.000000 31.000000"
preserveAspectRatio="xMidYMid meet">

<g transform="translate(0.000000,31.000000) scale(0.100000,-0.100000)"
fill="#1572a1" stroke="none">
<path d="M53 294 c-17 -9 -37 -29 -44 -45 -20 -50 1 -94 86 -179 l75 -74 41
39 c119 114 143 157 120 214 -23 54 -99 72 -143 33 -16 -13 -20 -13 -35 0 -28
24 -65 28 -100 12z m86 -40 l31 -26 31 26 c37 31 49 32 83 5 31 -24 33 -52 8
-94 -21 -34 -108 -120 -122 -120 -14 0 -101 86 -122 120 -25 42 -23 70 8 94
34 27 46 26 83 -5z"/>
</g>
</svg>
